<svg width="143" height="40" viewBox="0 0 143 40" fill="none" xmlns="http://www.w3.org/2000/svg">
<path d="M4 0H6V40H4C1.8 40 0 38.2 0 36V4C0 1.8 1.8 0 4 0Z" fill="#8F8F8F"/>
<path d="M18.1 21.5C18 22.5 18.1 23.3 18.3 23.8C18.5 24.3 18.9 24.6 19.5 24.6C19.6 24.6 19.8 24.6 19.9 24.5C19.9536 24.4732 20 24.4536 20.0431 24.4354C20.1608 24.3856 20.2536 24.3464 20.4 24.2C20.5646 24.1177 20.6614 23.9677 20.802 23.75C20.8323 23.7031 20.8646 23.6531 20.9 23.6C21.1 23.4 21.2 23 21.3 22.6L21.8 17.2C21.6 17.1 21.3 17.1 21.1 17.1C20.6 17.1 20.2 17.2 19.9 17.4C19.6 17.6 19.3 17.9 19.0001 18.1999C18.8001 18.5999 18.6 19 18.4 19.5C18.2648 19.8379 18.221 20.3128 18.176 20.8013C18.1543 21.0356 18.1324 21.2731 18.1 21.5Z" fill="#4B0082"/>
<path fill-rule="evenodd" clip-rule="evenodd" d="M36 36C36 38.2 34.2 40 32 40H6V0H32C34.2 0 36 1.8 36 4V36ZM30 20.2C29.9 25 26.9 27.1 24.7 26.9C24.6292 26.8882 24.5459 26.8778 24.4527 26.8662C23.7558 26.7791 22.5056 26.623 21.8 25.3C21 26.3 20 26.9 18.7 26.9C16.1 26.9 15.4 24.4 15.3 23.8C15.2 23.1 15.1 22.4 15.2 21.6C15.3 20.6 16.3 15.1 20.9 15.1C23.1 15.1 24.4 16.2 24.6 16.4L24 23.2C24 23.2286 23.9982 23.2663 23.996 23.3112C23.9755 23.7363 23.9241 24.8 25.1 24.8C27.2 24.8 27.5 20.9 27.5 20.2C27.6 19 27.8 12 20.5 12C13.6 12 12.6 19.4 12.5 21.2C12 29.7 18.5 29.7 19.7 29.7C21.4 29.7 23.4 29 23.6 28.9L24 30.9C23.7 31.1 22 32 19.6 32C17.4 32 9.50001 31.6 9.80001 21.2C10.1 19.1 11.4 10 20.6 10C29.8 10 30 18.1 30 20.2Z" fill="#4B0082"/>
<path fill-rule="evenodd" clip-rule="evenodd" d="M47.7917 38.8C49.1433 39.6 50.7599 40 52.6416 40C54.6557 40 56.4579 39.5467 58.048 38.64C59.6647 37.7067 60.9368 36.4133 61.8643 34.76C62.8184 33.1067 63.2955 31.16 63.2955 28.92C63.2955 26.6533 62.8184 24.6933 61.8643 23.04C60.9368 21.3867 59.6647 20.1067 58.048 19.2C56.4579 18.2933 54.6557 17.84 52.6416 17.84C50.8394 17.84 49.2625 18.24 47.9109 19.04C47.277 19.4152 46.7072 19.8813 46.2015 20.4384V10H40V39.68H45.9232V37.1951C46.4581 37.8444 47.0809 38.3793 47.7917 38.8ZM54.3112 34.16C53.5161 34.64 52.6018 34.88 51.5682 34.88C50.5346 34.88 49.6071 34.64 48.7855 34.16C47.9639 33.68 47.3146 33 46.8376 32.12C46.3605 31.2133 46.122 30.1467 46.122 28.92C46.122 27.6667 46.3605 26.6 46.8376 25.72C47.3146 24.84 47.9639 24.16 48.7855 23.68C49.6071 23.2 50.5346 22.96 51.5682 22.96C52.6018 22.96 53.5161 23.2 54.3112 23.68C55.1328 24.16 55.7821 24.84 56.2591 25.72C56.7627 26.6 57.0144 27.6667 57.0144 28.92C57.0144 30.1467 56.7627 31.2133 56.2591 32.12C55.7821 33 55.1328 33.68 54.3112 34.16Z" fill="#4B0082"/>
<path fill-rule="evenodd" clip-rule="evenodd" d="M77.6238 40C75.3446 40 73.3171 39.52 71.5415 38.56C69.7923 37.6 68.401 36.2933 67.3674 34.64C66.3603 32.96 65.8568 31.0533 65.8568 28.92C65.8568 26.76 66.3603 24.8533 67.3674 23.2C68.401 21.52 69.7923 20.2133 71.5415 19.28C73.3171 18.32 75.3446 17.84 77.6238 17.84C79.8764 17.84 81.8906 18.32 83.6663 19.28C85.4419 20.2133 86.8333 21.5067 87.8404 23.16C88.8474 24.8133 89.351 26.7333 89.351 28.92C89.351 31.0533 88.8474 32.96 87.8404 34.64C86.8333 36.2933 85.4419 37.6 83.6663 38.56C81.8906 39.52 79.8764 40 77.6238 40ZM77.6238 34.88C78.6573 34.88 79.5849 34.64 80.4065 34.16C81.2281 33.68 81.8774 33 82.3544 32.12C82.8314 31.2133 83.07 30.1467 83.07 28.92C83.07 27.6667 82.8314 26.6 82.3544 25.72C81.8774 24.84 81.2281 24.16 80.4065 23.68C79.5849 23.2 78.6573 22.96 77.6238 22.96C76.5902 22.96 75.6626 23.2 74.841 23.68C74.0194 24.16 73.3569 24.84 72.8533 25.72C72.3763 26.6 72.1378 27.6667 72.1378 28.92C72.1378 30.1467 72.3763 31.2133 72.8533 32.12C73.3569 33 74.0194 33.68 74.841 34.16C75.6626 34.64 76.5902 34.88 77.6238 34.88Z" fill="#4B0082"/>
<path fill-rule="evenodd" clip-rule="evenodd" d="M103.673 40C101.394 40 99.3665 39.52 97.5908 38.56C95.8417 37.6 94.4503 36.2933 93.4167 34.64C92.4096 32.96 91.9061 31.0533 91.9061 28.92C91.9061 26.76 92.4096 24.8533 93.4167 23.2C94.4503 21.52 95.8417 20.2133 97.5908 19.28C99.3665 18.32 101.394 17.84 103.673 17.84C105.926 17.84 107.94 18.32 109.716 19.28C111.491 20.2133 112.883 21.5067 113.89 23.16C114.897 24.8133 115.4 26.7333 115.4 28.92C115.4 31.0533 114.897 32.96 113.89 34.64C112.883 36.2933 111.491 37.6 109.716 38.56C107.94 39.52 105.926 40 103.673 40ZM103.673 34.88C104.707 34.88 105.634 34.64 106.456 34.16C107.277 33.68 107.927 33 108.404 32.12C108.881 31.2133 109.119 30.1467 109.119 28.92C109.119 27.6667 108.881 26.6 108.404 25.72C107.927 24.84 107.277 24.16 106.456 23.68C105.634 23.2 104.707 22.96 103.673 22.96C102.639 22.96 101.712 23.2 100.89 23.68C100.069 24.16 99.4062 24.84 98.9027 25.72C98.4256 26.6 98.1871 27.6667 98.1871 28.92C98.1871 30.1467 98.4256 31.2133 98.9027 32.12C99.4062 33 100.069 33.68 100.89 34.16C101.712 34.64 102.639 34.88 103.673 34.88Z" fill="#4B0082"/>
<path d="M125.747 34.2182L128.743 31.2542L135.487 39.68H143L133.298 27.2713L142.205 18.16H134.811L125.747 26.8076V10H119.546V39.68H125.747V34.2182Z" fill="#4B0082"/>
</svg>
